<svg width="16" height="16" viewBox="0 0 16 16" fill="none" xmlns="http://www.w3.org/2000/svg">
<path d="M7.99532 2C7.49614 2.91553 7.23525 3.9419 7.23666 4.98467C7.19815 6.53893 7.77817 8.04493 8.84931 9.17182C9.92045 10.2987 11.3951 10.9543 12.9493 10.9947C13.0827 10.9947 13.206 10.9833 13.3333 10.9747C12.8571 11.8788 12.1452 12.6372 11.2731 13.1698C10.401 13.7024 9.40113 13.9893 8.37932 14C6.82511 13.9597 5.35045 13.304 4.27931 12.1771C3.20817 11.0503 2.62815 9.54427 2.66666 7.99C2.63389 6.50309 3.16516 5.05889 4.15369 3.94768C5.14221 2.83647 6.51472 2.14062 7.99532 2Z" fill="#8b5cf6"/>
</svg>
