<svg width="80" height="80" viewBox="0 0 80 80" fill="none" xmlns="http://www.w3.org/2000/svg">
<path d="M40 6.66666C33.4073 6.66666 26.9626 8.62163 21.481 12.2843C15.9994 15.9471 11.7269 21.153 9.20402 27.2439C6.6811 33.3348 6.02099 40.037 7.30716 46.503C8.59334 52.969 11.768 58.9085 16.4298 63.5702C21.0915 68.232 27.031 71.4067 33.497 72.6928C39.963 73.979 46.6652 73.3189 52.7561 70.796C58.847 68.2731 64.0529 64.0006 67.7157 58.519C71.3784 53.0374 73.3333 46.5927 73.3333 40C73.3333 35.6226 72.4711 31.2881 70.796 27.2439C69.1208 23.1997 66.6655 19.5251 63.5702 16.4298C60.4749 13.3345 56.8003 10.8792 52.7561 9.20401C48.7119 7.52886 44.3774 6.66666 40 6.66666ZM40 23.3333C41.9778 23.3333 43.9112 23.9198 45.5557 25.0186C47.2002 26.1175 48.4819 27.6792 49.2388 29.5065C49.9957 31.3338 50.1937 33.3444 49.8079 35.2842C49.422 37.224 48.4696 39.0059 47.0711 40.4044C45.6726 41.8029 43.8907 42.7553 41.9509 43.1412C40.0111 43.527 38.0004 43.329 36.1732 42.5721C34.3459 41.8153 32.7841 40.5335 31.6853 38.889C30.5865 37.2445 30 35.3111 30 33.3333C30 30.6812 31.0536 28.1376 32.9289 26.2623C34.8043 24.3869 37.3478 23.3333 40 23.3333ZM40 66.6667C33.5183 66.6671 27.2604 64.2958 22.4067 60C27.2635 55.7104 33.5201 53.343 40 53.343C46.4799 53.343 52.7365 55.7104 57.5933 60C52.7396 64.2958 46.4817 66.6671 40 66.6667Z" fill="#868E96"/>
</svg>
